# xmcd
#
# Track frame offsets:
#	150
#	18894
#	32984
#	45501
#	66812
#	87880
#	106575
#	131419
#	143648
#	165364
#	181146
#	198728
#
# Disc length: 2873 seconds
#
# Revision: 1
# Processed by: cddbd v1.5.2PL0 Copyright (c) Steve Scherf et al.
# Submitted via: audiograbber 1.83.01
#
DISCID=910b370c
DTITLE=Sounds Of Joy - Soon!
DYEAR=1900
DGENRE=Gospel
TTITLE0=Blessed Be The Name Of The Lord
TTITLE1=I Was There When The Spirit Came
TTITLE2=I'm So In Love With Jesus
TTITLE3=In Everything Give Him Thanks
TTITLE4=He Looked Beyond My Faults
TTITLE5=Soon!
TTITLE6=To Me It's So Wonderful
TTITLE7=Glorify The Lord
TTITLE8=Peace Be Still
TTITLE9=Let There Be Praise
TTITLE10=Praise Him
TTITLE11=Live Live Live
EXTD=Das Erscheinungsdatum dürfte so um 1998 liegen. Keine genaue Angabe auf de
EXTD=m Cover.
EXTT0=
EXTT1=
EXTT2=
EXTT3=
EXTT4=
EXTT5=
EXTT6=
EXTT7=
EXTT8=
EXTT9=
EXTT10=
EXTT11=
PLAYORDER=
